# xmcd CD database file
#
# Track frame offsets:
#	150
#	81111
#	106539
#	165344
#	210289
#	252333
#
# Disc length: 3984 seconds
#
# Revision: 0
# Processed by: cddbd v1.5.2PL0 Copyright (c) Steve Scherf et al.
# Submitted via: CDex 1.51
#
DISCID=380f8e06
DTITLE=McCoy Tyner - Atlantis
DYEAR=1900
DGENRE=Jazz
TTITLE0=Atlantis
TTITLE1=In a Sentimental Mood
TTITLE2=Makin' Out
TTITLE3=My One and Onley Love
TTITLE4=Pursuit
TTITLE5=Love Samba
EXTD=
EXTT0=
EXTT1=
EXTT2=
EXTT3=
EXTT4=
EXTT5=
PLAYORDER=
